<svg width="354" height="317" viewBox="0 0 354 317" fill="none" xmlns="http://www.w3.org/2000/svg">
<path d="M96.9781 143.357C97.6941 143.375 104.96 168.605 104.96 178.409C104.96 188.213 101.386 196.162 96.9781 196.162C92.5701 196.162 88.9961 188.214 88.9961 178.41C88.9961 168.606 96.2621 143.34 96.9781 143.357Z" fill="#42A0F0"/>
<path d="M93.1211 181.409C94.2873 181.766 95.8232 180.123 96.5518 177.74C97.2804 175.357 96.9256 173.136 95.7595 172.78C94.5933 172.423 93.0573 174.066 92.3288 176.449C91.6002 178.832 91.9549 181.053 93.1211 181.409Z" fill="white"/>
<path d="M152.369 143.357C153.085 143.375 160.351 168.605 160.351 178.409C160.351 188.213 156.777 196.162 152.369 196.162C147.961 196.162 144.387 188.214 144.387 178.41C144.387 168.606 151.653 143.34 152.369 143.357Z" fill="#42A0F0"/>
<path d="M148.512 181.409C149.678 181.766 151.214 180.123 151.943 177.74C152.671 175.357 152.317 173.136 151.151 172.78C149.984 172.423 148.448 174.066 147.72 176.449C146.991 178.832 147.346 181.053 148.512 181.409Z" fill="white"/>
<path d="M211.796 143.357C212.512 143.375 219.778 168.605 219.778 178.409C219.778 188.213 216.204 196.162 211.796 196.162C207.388 196.162 203.814 188.214 203.814 178.41C203.814 168.606 211.08 143.34 211.796 143.357Z" fill="#42A0F0"/>
<path d="M207.939 181.409C209.105 181.766 210.641 180.123 211.37 177.74C212.098 175.357 211.744 173.136 210.577 172.78C209.411 172.423 207.875 174.066 207.147 176.449C206.418 178.832 206.773 181.053 207.939 181.409Z" fill="white"/>
<path d="M266.683 140.357C267.399 140.375 274.665 165.605 274.665 175.409C274.665 185.213 271.091 193.162 266.683 193.162C262.275 193.162 258.701 185.214 258.701 175.41C258.701 165.606 265.967 140.34 266.683 140.357Z" fill="#42A0F0"/>
<path d="M262.826 178.409C263.992 178.766 265.528 177.123 266.257 174.74C266.985 172.357 266.631 170.136 265.465 169.78C264.298 169.423 262.762 171.066 262.034 173.449C261.305 175.832 261.66 178.053 262.826 178.409Z" fill="white"/>
<path d="M180.335 210.357C181.051 210.375 188.317 235.605 188.317 245.409C188.317 255.213 184.743 263.162 180.335 263.162C175.927 263.162 172.353 255.214 172.353 245.41C172.353 235.606 179.619 210.34 180.335 210.357Z" fill="#42A0F0"/>
<path d="M176.478 248.409C177.644 248.766 179.18 247.123 179.909 244.74C180.637 242.357 180.283 240.136 179.116 239.779C177.95 239.423 176.414 241.066 175.686 243.449C174.957 245.832 175.312 248.053 176.478 248.409Z" fill="white"/>
<path d="M239.761 210.357C240.477 210.375 247.743 235.605 247.743 245.409C247.743 255.213 244.169 263.162 239.761 263.162C235.353 263.162 231.779 255.214 231.779 245.41C231.779 235.606 239.045 210.34 239.761 210.357Z" fill="#42A0F0"/>
<path d="M235.904 248.409C237.07 248.766 238.606 247.123 239.335 244.74C240.064 242.357 239.709 240.136 238.543 239.779C237.377 239.423 235.841 241.066 235.112 243.449C234.383 245.832 234.738 248.053 235.904 248.409Z" fill="white"/>
<path d="M302.683 210.357C303.399 210.375 310.665 235.605 310.665 245.409C310.665 255.213 307.091 263.162 302.683 263.162C298.275 263.162 294.701 255.214 294.701 245.41C294.701 235.606 301.967 210.34 302.683 210.357Z" fill="#42A0F0"/>
<path d="M298.826 248.409C299.992 248.766 301.528 247.123 302.257 244.74C302.985 242.357 302.631 240.136 301.465 239.779C300.298 239.423 298.762 241.066 298.034 243.449C297.305 245.832 297.66 248.053 298.826 248.409Z" fill="white"/>
<path d="M120.909 213.357C121.625 213.375 128.891 238.605 128.891 248.409C128.891 258.213 125.317 266.162 120.909 266.162C116.501 266.162 112.927 258.214 112.927 248.41C112.927 238.606 120.193 213.34 120.909 213.357Z" fill="#42A0F0"/>
<path d="M117.052 251.409C118.218 251.766 119.754 250.123 120.483 247.74C121.212 245.357 120.857 243.136 119.691 242.779C118.524 242.423 116.988 244.066 116.26 246.449C115.531 248.832 115.886 251.053 117.052 251.409Z" fill="white"/>
<path d="M64.9781 210.357C65.6941 210.375 72.9601 235.605 72.9601 245.409C72.9601 255.213 69.3861 263.162 64.9781 263.162C60.5701 263.162 56.9961 255.214 56.9961 245.41C56.9961 235.606 64.2621 210.34 64.9781 210.357Z" fill="#42A0F0"/>
<path d="M61.1211 248.409C62.2873 248.766 63.8232 247.123 64.5518 244.74C65.2804 242.357 64.9256 240.136 63.7595 239.779C62.5933 239.423 61.0573 241.066 60.3288 243.449C59.6002 245.832 59.9549 248.053 61.1211 248.409Z" fill="white"/>
<path d="M96.9781 263.357C97.6941 263.375 104.96 288.605 104.96 298.409C104.96 308.213 101.386 316.162 96.9781 316.162C92.5701 316.162 88.9961 308.214 88.9961 298.41C88.9961 288.606 96.2621 263.34 96.9781 263.357Z" fill="#42A0F0"/>
<path d="M93.1211 301.409C94.2873 301.766 95.8232 300.123 96.5518 297.74C97.2804 295.357 96.9256 293.136 95.7595 292.779C94.5933 292.423 93.0573 294.066 92.3288 296.449C91.6002 298.832 91.9549 301.053 93.1211 301.409Z" fill="white"/>
<path d="M152.369 263.357C153.085 263.375 160.351 288.605 160.351 298.409C160.351 308.213 156.777 316.162 152.369 316.162C147.961 316.162 144.387 308.214 144.387 298.41C144.387 288.606 151.653 263.34 152.369 263.357Z" fill="#42A0F0"/>
<path d="M148.512 301.409C149.678 301.766 151.214 300.123 151.943 297.74C152.671 295.357 152.317 293.136 151.151 292.779C149.984 292.423 148.448 294.066 147.72 296.449C146.991 298.832 147.346 301.053 148.512 301.409Z" fill="white"/>
<path d="M211.796 263.357C212.512 263.375 219.778 288.605 219.778 298.409C219.778 308.213 216.204 316.162 211.796 316.162C207.388 316.162 203.814 308.214 203.814 298.41C203.814 288.606 211.08 263.34 211.796 263.357Z" fill="#42A0F0"/>
<path d="M207.939 301.409C209.105 301.766 210.641 300.123 211.37 297.74C212.098 295.357 211.744 293.136 210.577 292.779C209.411 292.423 207.875 294.066 207.147 296.449C206.418 298.832 206.773 301.053 207.939 301.409Z" fill="white"/>
<path d="M266.683 263.357C267.399 263.375 274.665 288.605 274.665 298.409C274.665 308.213 271.091 316.162 266.683 316.162C262.275 316.162 258.701 308.214 258.701 298.41C258.701 288.606 265.967 263.34 266.683 263.357Z" fill="#42A0F0"/>
<path d="M262.826 301.409C263.992 301.766 265.528 300.123 266.257 297.74C266.985 295.357 266.631 293.136 265.465 292.779C264.298 292.423 262.762 294.066 262.034 296.449C261.305 298.832 261.66 301.053 262.826 301.409Z" fill="white"/>
<path d="M263.345 221H71.913C53.3426 220.986 35.4976 213.789 22.1137 200.915C8.72979 188.041 0.844732 170.489 0.109217 151.933C-0.626298 133.377 5.84476 115.256 18.1677 101.364C30.4906 87.4711 47.71 78.8839 66.221 77.3999C68.8608 58.7599 77.2781 41.4166 90.2887 27.8099C103.299 14.2032 120.248 5.01792 138.752 1.54632C157.255 -1.92528 176.381 0.491507 193.439 8.45667C210.497 16.4218 224.628 29.5345 233.845 45.9499C250.75 40.0981 269.015 39.4142 286.31 43.9856C303.605 48.557 319.146 58.1764 330.952 71.6169C342.757 85.0574 350.292 101.71 352.594 119.45C354.896 137.19 351.862 155.214 343.879 171.223C339.194 185.688 330.047 198.296 317.751 207.239C305.455 216.182 290.641 221 275.437 221H263.345Z" fill="url(#paint0_linear_112_2)"/>
<defs>
<linearGradient id="paint0_linear_112_2" x1="176.698" y1="0.00244141" x2="279.341" y2="248.166" gradientUnits="userSpaceOnUse">
<stop stop-color="white" stop-opacity="0.604"/>
<stop offset="1" stop-color="white" stop-opacity="0.2"/>
</linearGradient>
</defs>
</svg>
