<svg width="200" height="154" viewBox="0 0 200 154" fill="none" xmlns="http://www.w3.org/2000/svg">
<path fill-rule="evenodd" clip-rule="evenodd" d="M161 78C182.539 78 200 60.5391 200 39C200 17.4609 182.539 0 161 0C139.461 0 122 17.4609 122 39C122 41.7614 124.239 44 127 44C129.761 44 132 41.7614 132 39C132 22.9837 144.984 10 161 10C177.016 10 190 22.9837 190 39C190 55.0163 177.016 68 161 68C160.658 68 160.323 68.0344 160 68.1C159.677 68.0344 159.342 68 159 68H5C2.23858 68 0 70.2386 0 73C0 75.7614 2.23857 78 5 78H159C159.342 78 159.677 77.9656 160 77.9C160.323 77.9656 160.658 78 161 78ZM0 93C0 95.7614 2.23858 98 5 98H122C134.703 98 145 108.297 145 121C145 133.703 134.703 144 122 144C119.239 144 117 146.239 117 149C117 151.761 119.239 154 122 154C140.225 154 155 139.225 155 121C155 104.423 142.777 90.7007 126.852 88.3542C126.279 88.1257 125.654 88 125 88H122H5C2.23858 88 0 90.2386 0 93ZM5 108C2.23858 108 0 110.239 0 113C0 115.761 2.23857 118 5 118H96C98.7614 118 101 115.761 101 113C101 110.239 98.7614 108 96 108H5Z" fill="white"/>
</svg>
